<svg xmlns="http://www.w3.org/2000/svg" width="180" height="180" viewBox="0 0 180 180">
  <defs>
    <linearGradient id="bg" x1="0" y1="0" x2="1" y2="1">
      <stop offset="0%" stop-color="#2563eb"/>
      <stop offset="100%" stop-color="#1e40af"/>
    </linearGradient>
  </defs>
  <rect width="180" height="180" fill="url(#bg)"/>
  <g transform="translate(24,26)">
    <rect x="0" y="0" width="132" height="38" rx="6" fill="#ffffff"/>
    <rect x="0" y="38" width="132" height="38" rx="6" fill="#d7141a"/>
    <rect x="0" y="38" width="132" height="19" fill="#d7141a"/>
    <polygon points="0,0 66,38 0,76" fill="#11457e"/>
    <rect x="0" y="0" width="8" height="8" rx="6" fill="#11457e"/>
    <rect x="0" y="68" width="8" height="8" rx="6" fill="#11457e"/>
  </g>
  <g transform="translate(26,112)">
    <rect x="0" y="0" width="54" height="36" rx="9" fill="rgba(255,255,255,0.95)"/>
    <polygon points="13,36 20,45 26,36" fill="rgba(255,255,255,0.95)"/>
    <text x="27" y="26" font-family="Segoe UI,system-ui,sans-serif" font-size="19" font-weight="700" fill="#2563eb" text-anchor="middle">CZ</text>
    <rect x="64" y="5" width="54" height="36" rx="9" fill="rgba(255,255,255,0.25)"/>
    <polygon points="96,41 103,50 110,41" fill="rgba(255,255,255,0.25)"/>
    <text x="91" y="31" font-family="Segoe UI,system-ui,sans-serif" font-size="19" font-weight="700" fill="#ffffff" text-anchor="middle">UA</text>
    <line x1="56" y1="20" x2="62" y2="20" stroke="#ffffff" stroke-width="2.5" stroke-linecap="round"/>
    <polyline points="59,16 63,20 59,24" stroke="#ffffff" stroke-width="2.5" fill="none" stroke-linecap="round" stroke-linejoin="round"/>
  </g>
</svg>
